<svg xmlns="http://www.w3.org/2000/svg" style="display: none;">
	<symbol id="plus" viewBox="0 0 226.216 226.216">
		<title>plus</title><path d="m217.515,104.407h-95.707v-95.706c0-5.22-3.48-8.701-8.701-8.701s-8.701,3.48-8.701,8.701v95.707h-95.705c-5.22,0-8.701,3.48-8.701,8.701s3.48,8.701 8.701,8.701h95.707v95.707c0,5.22 3.48,8.701 8.701,8.701s8.701-3.48 8.701-8.701v-95.707h95.707c5.22,0 8.701-3.48 8.701-8.701s-3.483-8.702-8.703-8.702z"/></symbol>
	<symbol id="cancel" viewBox="0 0 191.414 191.414">
		<title>cancel</title><path d="M107.888,96.142l80.916-80.916c3.48-3.48,3.48-8.701,0-12.181s-8.701-3.48-12.181,0L95.707,83.961L14.791,3.045 c-3.48-3.48-8.701-3.48-12.181,0s-3.48,8.701,0,12.181l80.915,80.916L2.61,177.057c-3.48,3.48-3.48,8.701,0,12.181 c1.74,1.74,5.22,1.74,6.96,1.74s5.22,0,5.22-1.74l80.916-80.916l80.916,80.916c1.74,1.74,5.22,1.74,6.96,1.74 c1.74,0,5.22,0,5.22-1.74c3.48-3.48,3.48-8.701,0-12.181L107.888,96.142z"/></symbol>
	<symbol id="search" viewBox="0 0 244.487 244.487">
		<title>search</title><path d="m241.877,230.131l-72.929-72.929c13.973-16.67 22.465-38.004 22.465-61.061 0-52.204-43.503-95.707-95.707-95.707s-95.706,43.504-95.706,95.708 43.503,95.707 95.707,95.707c22.621,0 43.573-8.179 60.104-21.682l72.145,72.145c1.74,1.74 3.48,1.74 6.96,1.74s5.22,0 6.96-1.74c3.482-3.48 3.482-8.7 0.001-12.181zm-146.17-55.683c-43.503,0-78.305-34.802-78.305-78.305s34.802-78.305 78.305-78.305 78.305,34.802 78.305,78.305-34.802,78.305-78.305,78.305z"/></symbol>
	<symbol id="menu" viewBox="0 0 226.216 226.216">
		<title>menu</title>
		<path class="line-1" d="M8.701,43.503h208.814c5.22,0,8.701-3.48,8.701-8.701s-3.48-8.701-8.701-8.701H8.701C3.48,26.102,0,29.582,0,34.802 S3.48,43.503,8.701,43.503z"/>
		<path class="line-2" d="m217.515,104.407h-208.814c-5.22,0-8.701,3.48-8.701,8.701s3.48,8.701 8.701,8.701h208.814c5.22,0 8.701-3.48 8.701-8.701s-3.481-8.701-8.701-8.701z"/>
		<path class="line-3" d="m217.515,182.713h-208.814c-5.22,0-8.701,3.48-8.701,8.701s3.48,8.701 8.701,8.701h208.814c5.22,0 8.701-3.48 8.701-8.701s-3.481-8.701-8.701-8.701z"/></symbol>
	<symbol id="show" viewBox="0 0 314.962 314.962">
		<title>show</title><path d="m307.132,137.47c-27.842-27.842-83.526-74.825-149.65-74.825s-121.809,46.983-149.651,74.825c-10.441,10.441-10.441,29.582 1.15463e-14,40.023 27.842,27.842 83.526,74.825 149.65,74.825s121.808-46.983 149.65-74.825c10.441-10.441 10.441-29.582 0.001-40.023zm-12.181,26.102c-20.882,20.882-74.825,69.605-137.469,69.605s-116.589-48.724-137.47-69.605c-5.22-3.48-5.22-10.441 0-15.661 20.882-20.882 74.825-69.605 137.469-69.605s116.588,48.723 137.469,69.605c5.221,3.48 5.221,10.44 0.001,15.661z"/><path d="m157.481,113.108c-24.362,0-43.503,19.141-43.503,43.503s19.141,43.503 43.503,43.503 43.503-19.141 43.503-43.503-19.141-43.503-43.503-43.503zm0,69.605c-13.921,0-26.102-12.181-26.102-26.102 0-13.921 12.181-26.102 26.102-26.102 13.921,0 26.102,12.181 26.102,26.102 0,13.922-12.181,26.102-26.102,26.102z"/></symbol>
	<symbol id="sun" viewBox="0 0 295.82 295.82">
		<title>sun</title><path d="m147.91,69.605c-43.503,0-78.305,34.802-78.305,78.305s34.802,78.305 78.305,78.305 78.305-34.802 78.305-78.305-34.802-78.305-78.305-78.305zm0,139.209c-33.062-2.84217e-14-60.904-27.842-60.904-60.904s27.842-60.904 60.904-60.904 60.904,27.842 60.904,60.904-27.842,60.904-60.904,60.904z"/><path d="m147.91,34.802c5.22,0 8.701-3.48 8.701-8.701v-17.4c0-5.22-3.48-8.701-8.701-8.701-5.22,0-8.701,3.48-8.701,8.701v17.401c0.001,5.22 3.481,8.7 8.701,8.7z"/><path d="m147.91,261.018c-5.22,0-8.701,3.48-8.701,8.701v17.401c0,5.22 3.48,8.701 8.701,8.701 5.22,0 8.701-3.48 8.701-8.701v-17.401c0-5.22-3.481-8.701-8.701-8.701z"/><path d="m287.12,139.21h-17.401c-5.22,0-8.701,3.48-8.701,8.701 0,5.22 3.48,8.701 8.701,8.701h17.401c5.22,0 8.701-3.48 8.701-8.701-0.001-5.221-3.481-8.701-8.701-8.701z"/><path d="m26.102,139.21h-17.401c-5.221,0-8.701,3.48-8.701,8.7 0,5.22 3.48,8.701 8.701,8.701h17.401c5.22,0 8.701-3.48 8.701-8.701-0.001-5.22-3.481-8.7-8.701-8.7z"/><path d="m240.136,43.503l-12.181,12.181c-3.48,3.48-3.48,8.701 0,12.181 1.74,1.74 5.22,1.74 6.96,1.74 1.74,0 3.48,0 5.22-1.74l12.181-12.181c3.48-3.48 3.48-8.701 0-12.181s-8.699-3.48-12.18,0z"/><path d="m53.944,229.696l-12.181,12.181c-3.48,3.48-3.48,8.701 0,12.181 1.74,1.74 5.22,1.74 6.96,1.74 3.48,0 5.22-1.74 5.22-1.74l12.181-12.181c3.48-3.48 3.48-8.701 0-12.181-3.48-3.48-8.7-3.48-12.18,0z"/><path d="m240.136,229.696c-3.48-3.48-8.701-3.48-12.181,0s-3.48,8.701 0,12.181l12.181,12.181c1.74,1.74 5.22,1.74 6.96,1.74 1.74,0 3.48-1.74 5.22-1.74 3.48-3.48 3.48-8.701 0-12.181l-12.18-12.181z"/><path d="m53.944,43.503c-3.48-3.48-8.701-3.48-12.181,0s-3.48,8.701 0,12.181l12.181,12.181c1.74,1.74 5.22,1.74 6.96,1.74 3.48,0 5.22,0 5.22-1.74 3.48-3.48 3.48-8.701 0-12.181l-12.18-12.181z"/></symbol>
	<symbol id="chat" viewBox="0 0 295.82 295.82">
		<title>chat</title><path d="m234.916,36.543h-174.012c-33.062,0-60.904,27.842-60.904,60.904v69.605c0,33.062 27.842,60.904 60.904,60.904h163.571l27.842,24.362c5.22,5.22 10.441,6.96 17.401,6.96 13.921,0 26.102-12.181 26.102-26.102v-135.729c0-33.062-27.842-60.904-60.904-60.904zm43.503,196.633c0,8.701-8.701,12.181-13.921,6.96l-31.322-27.842c-1.74-1.74-3.48-1.74-5.22-1.74h-167.051c-24.362,0-43.503-19.141-43.503-43.503v-69.605c0-24.362 19.141-43.503 43.503-43.503h174.012c24.362,0 43.503,19.141 43.503,43.503l-.001,135.73z"/><path d="m69.605,127.029c-1.74,1.74-3.48,5.22-3.48,8.701s1.74,6.96 3.48,8.701c1.74,1.74 5.22,3.48 8.701,3.48s6.96-1.74 10.441-3.48c1.74-1.74 3.48-5.22 3.48-8.701s-1.74-6.96-3.48-8.701c-5.221-5.221-13.922-5.221-19.142,0z"/><path d="m139.21,127.029c-1.74,1.74-3.48,5.22-3.48,8.701s1.74,6.96 3.48,8.701c1.74,1.74 5.22,3.48 8.701,3.48s6.96-1.74 10.441-3.48c1.74-1.74 3.48-5.22 3.48-8.701s-1.74-6.96-3.48-8.701c-5.222-5.221-13.922-5.221-19.142,0z"/><path d="m208.814,127.029c-1.74,1.74-3.48,5.22-3.48,8.701s1.74,6.96 3.48,8.701c1.74,1.74 5.22,3.48 8.701,3.48s6.96-1.74 10.441-3.48c1.74-1.74 3.48-5.22 3.48-8.701s-1.74-6.96-3.48-8.701c-5.221-5.221-13.921-5.221-19.142,0z"/></symbol>
	<symbol id="next" viewBox="0 0 235.786 235.786">
		<title>next</title><path d="m227.956,100.056l-57.424-57.424c-3.48-3.48-8.701-3.48-12.181,0s-3.48,8.701 0,12.181l53.944,53.944h-203.594c-5.22,0-8.701,3.48-8.701,8.701 0,5.22 3.48,8.701 8.701,8.701h205.334l-55.684,55.684c-3.48,3.48-3.48,8.701 0,12.181 1.74,1.74 5.22,1.74 6.96,1.74 3.48,0 5.22,0 5.22-1.74l57.424-57.424c10.442-10.442 10.442-26.103 0.001-36.544z"/></symbol>
	<symbol id="next-1" viewBox="0 0 225.347 225.347">
		<title>next-1</title><path d="M154.002,82.656L73.956,2.61c-3.48-3.48-8.701-3.48-12.181,0c-3.48,3.48-3.48,8.701,0,12.181l80.046,80.046 c10.441,10.441,10.441,26.102,0,36.543l-80.046,80.046c-3.48,3.48-3.48,8.701,0,12.181c1.74,1.74,5.22,1.74,6.96,1.74 s5.22,0,5.22,0l80.046-80.046c6.96-8.701,12.181-19.141,12.181-31.322C166.182,101.797,162.702,91.357,154.002,82.656z"/></symbol>
	<symbol id="back" viewBox="0 0 227.086 227.086">
		<title>back</title><path d="m84.396,131.38c-10.441-10.441-10.441-26.102 0-36.543l80.046-80.046c3.48-3.48 3.48-8.701 0-12.181s-8.701-3.48-12.181,0l-80.046,80.046c-6.96,8.701-12.181,19.141-12.181,31.322s3.48,22.621 12.181,31.322l80.046,80.046c1.74,1.74 5.22,1.74 6.96,1.74 1.74,0 5.22,0 5.22-3.48 3.48-3.48 3.48-8.701 0-12.181l-80.045-80.045z"/></symbol>
	<symbol id="back-1" viewBox="0 0 237.526 237.526">
		<title>back-1</title><path d="m228.826,109.628h-205.334l53.944-53.944c3.48-3.48 3.48-8.701 0-12.181-3.48-3.48-8.701-3.48-12.181,0l-57.424,57.424c-10.441,10.441-10.441,26.102-2.66454e-15,36.543l57.424,57.424c1.74,1.74 5.22,1.74 6.96,1.74s3.48,0 5.22-1.74c3.48-3.48 3.48-8.701 0-12.181l-55.684-55.684h207.074c3.48,0 8.701-3.48 8.701-8.701 2.84217e-14-5.22-3.48-8.7-8.7-8.7z"/></symbol>
	<symbol id="clip" viewBox="0 0 262.758 262.758">
		<title>clip</title><path d="m140.95,195.764l-33.062,33.062c-19.141,20.882-53.944,20.882-74.825,0-10.441-10.441-15.661-22.621-15.661-38.283 0-15.661 5.22-27.842 15.661-38.283l33.062-33.062c3.48-3.48 3.48-8.701 0-12.181-3.48-3.48-8.701-3.48-12.181,0l-33.062,33.062c-13.921,13.921-20.882,31.322-20.882,50.464s6.96,36.543 20.882,50.463 33.062,20.882 50.463,20.882c19.141,0 36.543-6.96 48.723-20.882l33.062-33.062c3.48-3.48 3.48-8.701 0-12.181-3.48-3.479-8.7-3.479-12.18,0.001z"/><path d="m241.877,21.752c-27.842-27.842-71.345-27.842-99.187,0l-33.062,33.062c-3.48,3.48-3.48,8.701 0,12.181s8.701,3.48 12.181,0l33.062-33.062c20.882-20.882 53.944-20.882 74.825,0 20.882,20.882 20.882,53.944 0,74.825l-33.062,33.062c-3.48,3.48-3.48,8.701 0,12.181 1.74,1.74 5.22,1.74 6.96,1.74 1.74,0 3.48,0 5.22-1.74l33.062-33.062c27.843-27.842 27.843-71.345 0.001-99.187z"/><path d="m64.385,199.244c1.74,1.74 5.22,1.74 6.96,1.74 3.48,0 5.22-1.74 5.22-1.74l120.068-120.068c3.48-3.48 3.48-8.701 0-12.181s-8.701-3.48-12.181,0l-120.068,120.068c-3.48,3.481-3.48,8.701 0.001,12.181z"/></symbol>
	<symbol id="instagram" viewBox="0 0 512.00096 512.00096">
		<title>instagram</title><path d="m373.40625 0h-234.8125c-76.421875 0-138.59375 62.171875-138.59375 138.59375v234.816406c0 76.417969 62.171875 138.589844 138.59375 138.589844h234.816406c76.417969 0 138.589844-62.171875 138.589844-138.589844v-234.816406c0-76.421875-62.171875-138.59375-138.59375-138.59375zm108.578125 373.410156c0 59.867188-48.707031 108.574219-108.578125 108.574219h-234.8125c-59.871094 0-108.578125-48.707031-108.578125-108.574219v-234.816406c0-59.871094 48.707031-108.578125 108.578125-108.578125h234.816406c59.867188 0 108.574219 48.707031 108.574219 108.578125zm0 0"/><path d="m256 116.003906c-77.195312 0-139.996094 62.800782-139.996094 139.996094s62.800782 139.996094 139.996094 139.996094 139.996094-62.800782 139.996094-139.996094-62.800782-139.996094-139.996094-139.996094zm0 249.976563c-60.640625 0-109.980469-49.335938-109.980469-109.980469 0-60.640625 49.339844-109.980469 109.980469-109.980469 60.644531 0 109.980469 49.339844 109.980469 109.980469 0 60.644531-49.335938 109.980469-109.980469 109.980469zm0 0"/><path d="m399.34375 66.285156c-22.8125 0-41.367188 18.558594-41.367188 41.367188 0 22.8125 18.554688 41.371094 41.367188 41.371094s41.371094-18.558594 41.371094-41.371094-18.558594-41.367188-41.371094-41.367188zm0 52.71875c-6.257812 0-11.351562-5.09375-11.351562-11.351562 0-6.261719 5.09375-11.351563 11.351562-11.351563 6.261719 0 11.355469 5.089844 11.355469 11.351563 0 6.257812-5.09375 11.351562-11.355469 11.351562zm0 0"/></symbol>
	<symbol id="facebook" viewBox="-110 1 511 511.99996">
		<title>facebook</title><path d="m180 512h-81.992188c-13.695312 0-24.835937-11.140625-24.835937-24.835938v-184.9375h-47.835937c-13.695313 0-24.835938-11.144531-24.835938-24.835937v-79.246094c0-13.695312 11.140625-24.835937 24.835938-24.835937h47.835937v-39.683594c0-39.347656 12.355469-72.824219 35.726563-96.804688 23.476562-24.089843 56.285156-36.820312 94.878906-36.820312l62.53125.101562c13.671875.023438 24.792968 11.164063 24.792968 24.835938v73.578125c0 13.695313-11.136718 24.835937-24.828124 24.835937l-42.101563.015626c-12.839844 0-16.109375 2.574218-16.808594 3.363281-1.152343 1.308593-2.523437 5.007812-2.523437 15.222656v31.351563h58.269531c4.386719 0 8.636719 1.082031 12.289063 3.121093 7.878906 4.402344 12.777343 12.726563 12.777343 21.722657l-.03125 79.246093c0 13.6875-11.140625 24.828125-24.835937 24.828125h-58.46875v184.941406c0 13.695313-11.144532 24.835938-24.839844 24.835938zm-76.8125-30.015625h71.632812v-193.195313c0-9.144531 7.441407-16.582031 16.582032-16.582031h66.726562l.027344-68.882812h-66.757812c-9.140626 0-16.578126-7.4375-16.578126-16.582031v-44.789063c0-11.726563 1.191407-25.0625 10.042969-35.085937 10.695313-12.117188 27.550781-13.515626 39.300781-13.515626l36.921876-.015624v-63.226563l-57.332032-.09375c-62.023437 0-100.566406 39.703125-100.566406 103.609375v53.117188c0 9.140624-7.4375 16.582031-16.578125 16.582031h-56.09375v68.882812h56.09375c9.140625 0 16.578125 7.4375 16.578125 16.582031zm163.0625-451.867187h.003906zm0 0"/></symbol>
	<symbol id="heart" viewBox="0 -28 512.001 512">
		<title>heart</title><path d="m256 455.515625c-7.289062 0-14.316406-2.640625-19.792969-7.4375-20.683593-18.085937-40.625-35.082031-58.21875-50.074219l-.089843-.078125c-51.582032-43.957031-96.125-81.917969-127.117188-119.3125-34.644531-41.804687-50.78125-81.441406-50.78125-124.742187 0-42.070313 14.425781-80.882813 40.617188-109.292969 26.503906-28.746094 62.871093-44.578125 102.414062-44.578125 29.554688 0 56.621094 9.34375 80.445312 27.769531 12.023438 9.300781 22.921876 20.683594 32.523438 33.960938 9.605469-13.277344 20.5-24.660157 32.527344-33.960938 23.824218-18.425781 50.890625-27.769531 80.445312-27.769531 39.539063 0 75.910156 15.832031 102.414063 44.578125 26.191406 28.410156 40.613281 67.222656 40.613281 109.292969 0 43.300781-16.132812 82.9375-50.777344 124.738281-30.992187 37.398437-75.53125 75.355469-127.105468 119.308594-17.625 15.015625-37.597657 32.039062-58.328126 50.167969-5.472656 4.789062-12.503906 7.429687-19.789062 7.429687zm-112.96875-425.523437c-31.066406 0-59.605469 12.398437-80.367188 34.914062-21.070312 22.855469-32.675781 54.449219-32.675781 88.964844 0 36.417968 13.535157 68.988281 43.882813 105.605468 29.332031 35.394532 72.960937 72.574219 123.476562 115.625l.09375.078126c17.660156 15.050781 37.679688 32.113281 58.515625 50.332031 20.960938-18.253907 41.011719-35.34375 58.707031-50.417969 50.511719-43.050781 94.136719-80.222656 123.46875-115.617188 30.34375-36.617187 43.878907-69.1875 43.878907-105.605468 0-34.515625-11.605469-66.109375-32.675781-88.964844-20.757813-22.515625-49.300782-34.914062-80.363282-34.914062-22.757812 0-43.652344 7.234374-62.101562 21.5-16.441406 12.71875-27.894532 28.796874-34.609375 40.046874-3.453125 5.785157-9.53125 9.238282-16.261719 9.238282s-12.808594-3.453125-16.261719-9.238282c-6.710937-11.25-18.164062-27.328124-34.609375-40.046874-18.449218-14.265626-39.34375-21.5-62.097656-21.5zm0 0"/></symbol>
	<symbol id="youtube" viewBox="0 -62 512.00199 512">
		<title>youtube</title><path d="m334.808594 170.992188-113.113282-61.890626c-6.503906-3.558593-14.191406-3.425781-20.566406.351563-6.378906 3.78125-10.183594 10.460937-10.183594 17.875v122.71875c0 7.378906 3.78125 14.046875 10.117188 17.832031 3.308594 1.976563 6.976562 2.96875 10.652344 2.96875 3.367187 0 6.742187-.832031 9.847656-2.503906l113.117188-60.824219c6.714843-3.613281 10.90625-10.59375 10.9375-18.222656.027343-7.628906-4.113282-14.640625-10.808594-18.304687zm-113.859375 63.617187v-91.71875l84.539062 46.257813zm0 0"/><path d="m508.234375 91.527344-.023437-.234375c-.433594-4.121094-4.75-40.777344-22.570313-59.421875-20.597656-21.929688-43.949219-24.59375-55.179687-25.871094-.929688-.105469-1.78125-.203125-2.542969-.304688l-.894531-.09375c-67.6875-4.921874-169.910157-5.5937495-170.933594-5.59765575l-.089844-.00390625-.089844.00390625c-1.023437.00390625-103.246094.67578175-171.542968 5.59765575l-.902344.09375c-.726563.097657-1.527344.1875-2.398438.289063-11.101562 1.28125-34.203125 3.949219-54.859375 26.671875-16.972656 18.445312-21.878906 54.316406-22.382812 58.347656l-.058594.523438c-.152344 1.714844-3.765625 42.539062-3.765625 83.523437v38.3125c0 40.984375 3.613281 81.808594 3.765625 83.527344l.027344.257813c.433593 4.054687 4.746093 40.039062 22.484375 58.691406 19.367187 21.195312 43.855468 24 57.027344 25.507812 2.082031.238282 3.875.441406 5.097656.65625l1.183594.164063c39.082031 3.71875 161.617187 5.550781 166.8125 5.625l.15625.003906.15625-.003906c1.023437-.003907 103.242187-.675781 170.929687-5.597657l.894531-.09375c.855469-.113281 1.816406-.214843 2.871094-.324218 11.039062-1.171875 34.015625-3.605469 54.386719-26.019532 16.972656-18.449218 21.882812-54.320312 22.382812-58.347656l.058594-.523437c.152344-1.71875 3.769531-42.539063 3.769531-83.523438v-38.3125c-.003906-40.984375-3.617187-81.804687-3.769531-83.523437zm-26.238281 121.835937c0 37.933594-3.3125 77-3.625 80.585938-1.273438 9.878906-6.449219 32.574219-14.71875 41.5625-12.75 14.027343-25.847656 15.417969-35.410156 16.429687-1.15625.121094-2.226563.238282-3.195313.359375-65.46875 4.734375-163.832031 5.460938-168.363281 5.488281-5.082032-.074218-125.824219-1.921874-163.714844-5.441406-1.941406-.316406-4.039062-.558594-6.25-.808594-11.214844-1.285156-26.566406-3.042968-38.371094-16.027343l-.277344-.296875c-8.125-8.464844-13.152343-29.6875-14.429687-41.148438-.238281-2.710937-3.636719-42.238281-3.636719-80.703125v-38.3125c0-37.890625 3.304688-76.914062 3.625-80.574219 1.519532-11.636718 6.792969-32.957031 14.71875-41.574218 13.140625-14.453125 26.996094-16.054688 36.160156-17.113282.875-.101562 1.691407-.195312 2.445313-.292968 66.421875-4.757813 165.492187-5.464844 169.046875-5.492188 3.554688.023438 102.589844.734375 168.421875 5.492188.808594.101562 1.691406.203125 2.640625.3125 9.425781 1.074218 23.671875 2.699218 36.746094 16.644531l.121094.128906c8.125 8.464844 13.152343 30.058594 14.429687 41.75.226563 2.558594 3.636719 42.171875 3.636719 80.71875zm0 0"/></symbol>
	<symbol id="user" viewBox="-42 0 512 512.001">
		<title>user</title><path d="m210.351562 246.632812c33.882813 0 63.21875-12.152343 87.195313-36.128906 23.96875-23.972656 36.125-53.304687 36.125-87.191406 0-33.875-12.152344-63.210938-36.128906-87.191406-23.976563-23.96875-53.3125-36.121094-87.191407-36.121094-33.886718 0-63.21875 12.152344-87.191406 36.125s-36.128906 53.308594-36.128906 87.1875c0 33.886719 12.15625 63.222656 36.128906 87.195312 23.980469 23.96875 53.316406 36.125 87.191406 36.125zm-65.972656-189.292968c18.394532-18.394532 39.972656-27.335938 65.972656-27.335938 25.996094 0 47.578126 8.941406 65.976563 27.335938 18.394531 18.398437 27.339844 39.980468 27.339844 65.972656 0 26-8.945313 47.578125-27.339844 65.976562-18.398437 18.398438-39.980469 27.339844-65.976563 27.339844-25.992187 0-47.570312-8.945312-65.972656-27.339844-18.398437-18.394531-27.34375-39.976562-27.34375-65.976562 0-25.992188 8.945313-47.574219 27.34375-65.972656zm0 0"/><path d="m426.128906 393.703125c-.691406-9.976563-2.089844-20.859375-4.148437-32.351563-2.078125-11.578124-4.753907-22.523437-7.957031-32.527343-3.3125-10.339844-7.808594-20.550781-13.375-30.335938-5.769532-10.15625-12.550782-19-20.160157-26.277343-7.957031-7.613282-17.699219-13.734376-28.964843-18.199219-11.226563-4.441407-23.667969-6.691407-36.976563-6.691407-5.226563 0-10.28125 2.144532-20.042969 8.5-6.007812 3.917969-13.035156 8.449219-20.878906 13.460938-6.707031 4.273438-15.792969 8.277344-27.015625 11.902344-10.949219 3.542968-22.066406 5.339844-33.042969 5.339844-10.96875 0-22.085937-1.796876-33.042968-5.339844-11.210938-3.621094-20.300782-7.625-26.996094-11.898438-7.769532-4.964844-14.800782-9.496094-20.898438-13.46875-9.753906-6.355468-14.808594-8.5-20.035156-8.5-13.3125 0-25.75 2.253906-36.972656 6.699219-11.257813 4.457031-21.003906 10.578125-28.96875 18.199219-7.609375 7.28125-14.390625 16.121094-20.15625 26.273437-5.558594 9.785157-10.058594 19.992188-13.371094 30.339844-3.199219 10.003906-5.875 20.945313-7.953125 32.523437-2.0625 11.476563-3.457031 22.363282-4.148437 32.363282-.679688 9.777344-1.023438 19.953125-1.023438 30.234375 0 26.726562 8.496094 48.363281 25.25 64.320312 16.546875 15.746094 38.4375 23.730469 65.066406 23.730469h246.53125c26.621094 0 48.511719-7.984375 65.0625-23.730469 16.757813-15.945312 25.253906-37.589843 25.253906-64.324219-.003906-10.316406-.351562-20.492187-1.035156-30.242187zm-44.90625 72.828125c-10.933594 10.40625-25.449218 15.464844-44.378906 15.464844h-246.527344c-18.933594 0-33.449218-5.058594-44.378906-15.460938-10.722656-10.207031-15.933594-24.140625-15.933594-42.585937 0-9.59375.316406-19.066407.949219-28.160157.617187-8.921874 1.878906-18.722656 3.75-29.136718 1.847656-10.285156 4.199219-19.9375 6.996094-28.675782 2.683593-8.378906 6.34375-16.675781 10.882812-24.667968 4.332031-7.617188 9.316407-14.152344 14.816407-19.417969 5.144531-4.925781 11.628906-8.957031 19.269531-11.980469 7.066406-2.796875 15.007812-4.328125 23.628906-4.558594 1.050781.558594 2.921875 1.625 5.953125 3.601563 6.167969 4.019531 13.277344 8.605469 21.136719 13.625 8.859375 5.648437 20.273437 10.75 33.910156 15.152344 13.941406 4.507812 28.160156 6.796875 42.273437 6.796875 14.113282 0 28.335938-2.289063 42.269532-6.792969 13.648437-4.410156 25.058594-9.507813 33.929687-15.164063 8.042969-5.140624 14.953125-9.59375 21.121094-13.617187 3.03125-1.972656 4.902344-3.042969 5.953125-3.601563 8.625.230469 16.566406 1.761719 23.636719 4.558594 7.636719 3.023438 14.121093 7.058594 19.265625 11.980469 5.5 5.261719 10.484375 11.796875 14.816406 19.421875 4.542969 7.988281 8.207031 16.289062 10.886719 24.660156 2.800781 8.75 5.15625 18.398438 7 28.675782 1.867187 10.433593 3.132812 20.238281 3.75 29.144531v.007812c.636719 9.058594.957031 18.527344.960937 28.148438-.003906 18.449219-5.214844 32.378906-15.9375 42.582031zm0 0"/></symbol>
	<symbol id="whatsapp" viewBox="0 0 512 512">
		<title>whatsapp</title><path d="m439.277344 72.722656c-46.898438-46.898437-109.238282-72.722656-175.566406-72.722656-.003907 0-.019532 0-.023438 0-32.804688.00390625-64.773438 6.355469-95.011719 18.882812-30.242187 12.527344-57.335937 30.640626-80.535156 53.839844-46.894531 46.894532-72.71875 109.246094-72.71875 175.566406 0 39.550782 9.542969 78.855469 27.625 113.875l-41.734375 119.226563c-2.941406 8.410156-.859375 17.550781 5.445312 23.851563 4.410157 4.414062 10.214844 6.757812 16.183594 6.757812 2.558594 0 5.144532-.429688 7.667969-1.3125l119.226563-41.730469c35.019531 18.082031 74.324218 27.625 113.875 27.625 66.320312 0 128.667968-25.828125 175.566406-72.722656 46.894531-46.894531 72.722656-109.246094 72.722656-175.566406 0-66.324219-25.824219-128.675781-72.722656-175.570313zm-21.234375 329.902344c-41.222657 41.226562-96.035157 63.925781-154.332031 63.925781-35.664063 0-71.09375-8.820312-102.460938-25.515625-5.6875-3.023437-12.410156-3.542968-18.445312-1.429687l-108.320313 37.910156 37.914063-108.320313c2.113281-6.042968 1.589843-12.765624-1.433594-18.449218-16.691406-31.359375-25.515625-66.789063-25.515625-102.457032 0-58.296874 22.703125-113.109374 63.925781-154.332031 41.21875-41.21875 96.023438-63.921875 154.316406-63.929687h.019532c58.300781 0 113.109374 22.703125 154.332031 63.929687 41.226562 41.222657 63.929687 96.03125 63.929687 154.332031 0 58.300782-22.703125 113.113282-63.929687 154.335938zm0 0"/><path d="m355.984375 270.46875c-11.421875-11.421875-30.007813-11.421875-41.429687 0l-12.492188 12.492188c-31.019531-16.902344-56.121094-42.003907-73.027344-73.023438l12.492188-12.492188c11.425781-11.421874 11.425781-30.007812 0-41.429687l-33.664063-33.664063c-11.421875-11.421874-30.007812-11.421874-41.429687 0l-26.929688 26.929688c-15.425781 15.425781-16.195312 41.945312-2.167968 74.675781 12.179687 28.417969 34.46875 59.652344 62.761718 87.945313 28.292969 28.292968 59.527344 50.582031 87.945313 62.761718 15.550781 6.664063 29.695312 9.988282 41.917969 9.988282 13.503906 0 24.660156-4.058594 32.757812-12.15625l26.929688-26.933594v.003906c5.535156-5.535156 8.582031-12.890625 8.582031-20.714844 0-7.828124-3.046875-15.183593-8.582031-20.714843zm-14.5 80.792969c-4.402344 4.402343-17.941406 5.945312-41.609375-4.195313-24.992188-10.710937-52.886719-30.742187-78.542969-56.398437s-45.683593-53.546875-56.394531-78.539063c-10.144531-23.667968-8.601562-37.210937-4.199219-41.613281l26.414063-26.414063 32.625 32.628907-15.636719 15.640625c-7.070313 7.070312-8.777344 17.792968-4.242187 26.683594 20.558593 40.3125 52.734374 72.488281 93.046874 93.046874 8.894532 4.535157 19.617188 2.832032 26.6875-4.242187l15.636719-15.636719 32.628907 32.628906zm0 0"/></symbol>
	<symbol id="twitter" viewBox="0 -45 512.00013 512">
		<title>twitter</title><path d="m194.816406 422.710938c-85.453125 0-152.992187-14.929688-185.304687-40.953126l-.628907-.507812-.570312-.570312c-7.675781-7.679688-10.191406-17.753907-6.894531-27.636719l.300781-.820313c4-10.003906 13.800781-16.738281 24.421875-16.800781 21.859375-.378906 40.984375-2.984375 58.339844-8.042969-27.683594-12.875-46.914063-35.167968-58.355469-67.433594-3.847656-10.0625-.527344-21.21875 8.339844-27.871093 2.1875-1.644531 4.660156-2.886719 7.277344-3.71875-15.382813-17.757813-26.746094-37.964844-33.109376-59.335938l-.199218-.664062-.136719-.679688c-2.160156-10.808593 2.671875-21.921875 11.527344-26.707031 3.714843-2.132812 7.75-3.238281 11.800781-3.332031-4.367188-9.40625-7.542969-19.0625-9.425781-28.777344-5.226563-26.921875-.914063-53.910156 12.8125-80.214844l3.175781-6.351562c2.542969-5.082031 7.402344-8.652344 13.003906-9.5625 5.601563-.90625 11.34375.945312 15.355469 4.957031l5.785156 5.792969c45.703125 47.914062 86.640625 70.648437 157.417969 86.203125 3.160156-27.167969 14.90625-52.421875 33.855469-72.296875 22.550781-23.648438 52.664062-36.917969 84.792969-37.371094h.210937c23.441406 0 52.519531 13.382813 70.105469 22.820313 15.085937-4.9375 33.261718-12.582032 52.121094-20.664063 8.824218-4.140625 19.703124-2.2460938 26.640624 4.691406 6.800782 6.800781 8.6875 16.390625 5.078126 25.710938-1.371094 3.816406-2.925782 7.5625-4.65625 11.226562 2.582031 1.183594 4.945312 2.789063 6.941406 4.785157 6.035156 6.035156 8.550781 15.480468 6.40625 24.066406l-.230469.816406c-7.226563 23.289062-21.109375 42.257812-39.46875 54.164062-3.066406 163.285157-126.027344 295.078126-276.730469 295.078126zm-156.511718-57.675782c30.449218 17.226563 88.476562 27.648438 156.511718 27.648438 65.410156 0 127.136719-28.082032 173.804688-79.074219 47.050781-51.410156 72.960937-119.679687 72.960937-192.234375v-.816406c0-6.570313 3.617188-12.566406 9.4375-15.652344 11.808594-6.253906 21.371094-16.90625 27.589844-30.527344-6.414063 1.011719-12.933594-1.5625-16.929687-6.929687-4.644532-6.238281-4.695313-14.664063-.128907-20.957031 2.464844-3.398438 4.699219-6.933594 6.691407-10.589844-16.285157 6.839844-31.75 12.972656-45.175782 17.046875-4.878906 1.476562-10.316406.898437-14.773437-1.589844-23.902344-13.316406-46.164063-21.277344-59.585938-21.316406-49.527343.757812-89.796875 43.175781-89.796875 94.605469 0 5.316406-2.359375 10.300781-6.464844 13.679687-4.109374 3.375-9.453124 4.726563-14.671874 3.695313-81.609376-16.078126-129.96875-40.1875-180.257813-90.722657-7.207031 17.269531-9.175781 34.664063-5.84375 51.839844 3.378906 17.398437 12.367187 34.832031 25.996094 50.414063 5.179687 5.914062 5.867187 14.375 1.710937 21.050781-4.140625 6.652343-12.011718 9.761719-19.578125 7.734375-5.914062-1.585938-11.351562-3.667969-16.507812-6.34375 10.503906 22.816406 28.570312 43.917968 51.28125 59.480468 6.582031 4.511719 9.332031 12.921876 6.691406 20.453126-2.644531 7.542968-10.03125 12.398437-18.015625 11.804687-8.699219-.644531-16.40625-2.296875-23.5-5.082031 12.734375 25.933594 33.082031 40.203125 64.429688 45.65625 7.464843 1.300781 13.277343 7.195312 14.464843 14.667968 1.191407 7.472657-2.507812 14.878907-9.199219 18.429688-26.71875 14.164062-55.921874 21.765625-91.140624 23.628906zm0 0"/></symbol>
	<symbol id="email" viewBox="0 -100 512.00002 512">
		<title>email</title><path d="m494.535156 0h-477.070312c-9.628906 0-17.464844 7.835938-17.464844 17.464844v276.453125c0 9.628906 7.835938 17.460937 17.464844 17.460937h477.070312c9.628906 0 17.464844-7.832031 17.464844-17.460937v-276.453125c0-9.628906-7.835938-17.464844-17.464844-17.464844zm-464.503906 43.027344 143.507812 95.382812-143.507812 124.921875zm225.96875 114.128906-191.265625-127.125h382.53125zm-56.523438-1.511719 46.855469 31.144531c2.9375 1.953126 6.300781 2.929688 9.667969 2.929688 3.363281 0 6.730469-.980469 9.667969-2.929688l46.855469-31.144531 144.402343 125.703125h-401.851562zm138.984376-17.238281 143.507812-95.382812v220.308593zm0 0"/></symbol>
	<symbol id="like" viewBox="-26 1 511 511.99994">
		<title>like</title><path d="m344.023438 512c-.019532 0-41.105469-.050781-54.351563-.050781-68.347656 0-117.324219-5.9375-154.125-18.6875-7.839844-2.75-14.691406-5.804688-20.734375-8.496094-10.699219-4.765625-19.144531-8.527344-27.90625-8.527344h-35.699219c-10.808593 0-26.460937-1.15625-37.507812-11.15625-11.832031-10.707031-13.199219-26.234375-13.199219-36.980469l.007812-163.210937c0-14.984375 4.601563-27.636719 13.3125-36.585937 6.257813-6.4375 17.828126-14.109376 37.386719-14.109376.957031 0 2.015625.011719 3.164063.023438 11.15625.125 29.511718.320312 41.386718-9.988281.722657-1.386719 1.425782-2.6875 2.058594-3.855469.425782-.847656.828125-1.542969 1.128906-2.070312.105469-.179688.214844-.359376.316407-.558594.820312-1.949219 1.792969-3.675782 2.941406-5.207032 6.328125-10.589843 13.449219-20.464843 19.640625-27.21875 13.675781-14.960937 26.351562-22.699218 37.535156-29.53125 13.128906-8.019531 22.617188-13.8125 30.875-29.9375l.578125-1.121093c12.363281-24.105469 17.480469-34.082031 20.574219-46.050781 1.046875-4.058594 1.507812-8.324219 1.367188-12.675782-1.121094-16.890625 7.226562-42.816406 34.96875-45.910156l.828124-.09375h.832032c16.886718 0 31.023437 4 42.023437 11.882812 16.371094 11.734376 24.671875 30.800782 24.671875 56.664063 0 46.132813-11.28125 83.042969-21.015625 106.300781l115.855469 14.546875c27.753906 1.601563 49.191406 26.738281 47.917969 56.375-.675781 15.714844-7.191407 29.882813-17.109375 39.777344 9.375 9.203125 14.359375 21.648437 13.8125 35.96875-.179688 14.351563-4.582032 25.820313-13.085938 34.089844-3.285156 3.195312-6.960937 5.671875-10.847656 7.585937 6.578125 8.695313 10.128906 19.28125 10.128906 30.488282 0 15.285156-5.785156 29.234374-16.292968 39.273437-8.5625 8.179687-19.761719 13.304687-31.632813 14.644531 1.847656 5.113282 2.703125 10.675782 2.472656 16.53125-.023437 2.332032-.246093 6.636719-.582031 8.679688-1.53125 9.234375-5.25 16.550781-11.375 22.375-11.558594 11-25.503906 16.816406-40.320312 16.816406zm-292.816407-267.804688c-14.511719 0-20.699219 6.1875-20.699219 20.699219l-.007812 163.210938c0 5.347656.578125 12.246093 3.328125 14.738281 1.402344 1.265625 5.527344 3.394531 17.378906 3.394531h35.699219c15.140625 0 27.269531 5.40625 40.113281 11.125 5.789063 2.582031 11.773438 5.246094 18.402344 7.574219 33.035156 11.441406 80.234375 17.015625 144.25 17.015625 13.253906 0 54.371094.050781 54.371094.050781 7.050781 0 13.660156-2.878906 19.628906-8.554687.757813-.722657 1.785156-1.699219 2.414063-5.328125.085937-.890625.199218-3.152344.21875-4.078125l-.015626-.324219.03125-.695312c.261719-5.839844-2.617187-10.132813-8.554687-12.769532-7.015625-3.113281-11.234375-10.335937-10.5-17.980468.925781-9.660157 9.558594-16.855469 19.230469-16.042969l20.167968 1.707031c6.796876.242188 13.375-2.183594 18.074219-6.671875 4.589844-4.386719 7.019531-10.46875 7.019531-17.585937 0-9.632813-7.027343-20.542969-22.453124-21.742188-4.386719-.335938-8.507813-2.480469-11.300782-5.882812-2.792968-3.390626-4.09375-7.839844-3.578125-12.203126.988281-8.324218 8.078125-14.496093 16.4375-14.3125 9.210938.171876 24.625.46875 30.695313-5.4375.972656-.941406 3.921875-3.8125 4.003906-13.101562l.011719-.507812c.566406-13.246094-9.980469-18.414063-18.929688-20.425782h-.007812c-7.429688-1.671875-12.539063-8.652344-11.890625-16.234375.652344-7.582031 6.875-13.585937 14.480468-13.964843 10.253907-.519532 19.078126-11.910157 19.660157-25.386719.574219-13.355469-8.367188-24.636719-19.929688-25.144531l-1.210937-.105469-117.980469-14.8125c-9.046875-1.136719-16.839844-6.320313-21.378906-14.222657-4.542969-7.902343-5.097657-17.246093-1.523438-25.632812 7.183594-16.855469 19.234375-51.738281 19.234375-96.011719 0-33.542969-18.902344-38.378906-35.757812-38.542969-3.304688.523438-4.984375 2.003907-6.261719 5.40625-1.289063 3.433594-1.425781 7.40625-1.363281 8.761719l.03125.359375-.007813.128906c.273438 7.335938-.496093 14.578126-2.292969 21.523438-3.925781 15.191406-9.878906 26.800781-22.921874 52.234375l-.574219 1.117187c-12.105469 23.636719-27.273438 32.898438-41.9375 41.855469-9.941407 6.074219-20.226563 12.351563-31.039063 24.183594-4.964844 5.414063-11.128906 14.066406-16.496094 23.15625l-.941406 1.5c-.597656 1.308594-1.171875 2.304687-1.570312 3-.109375.195313-.230469.386719-.335938.597656l-.320312.628907c-.910156 1.667968-1.972656 3.644531-2.980469 5.65625l-1.089844 2.164062-1.714843 1.714844c-20.695313 20.695312-50.269532 20.375-64.480469 20.222656-1.027344-.015625-1.976563-.023438-2.835938-.023438zm314.925781 223.652344c-.007812.042969-.015624.089844-.023437.136719.003906-.023437.007813-.050781.015625-.074219zm.011719-.058594c-.003906.019532-.007812.039063-.011719.058594zm.175781-3.484374c0 .039062.003907.074218.003907.105468zm25.296876-122.277344h.023437c-.007813 0-.015625 0-.023437 0zm19.144531-42.203125c-.007813 0-.015625 0-.027344 0zm0 0"/></symbol>
	<symbol id="linkedin" viewBox="-28 0 512 512.00098">
		<title>linkedin</title><path d="m104.359375 151.625h-86.3125c-9.675781 0-17.546875 7.871094-17.546875 17.546875v325.285156c0 9.671875 7.871094 17.542969 17.546875 17.542969h86.3125c9.671875 0 17.542969-7.871094 17.542969-17.542969v-325.285156c0-9.675781-7.871094-17.546875-17.542969-17.546875zm-12.5 330.332031h-61.316406v-300.289062h61.316406zm0 0"/><path d="m61.203125 0c-33.75 0-61.203125 27.453125-61.203125 61.199219 0 33.75 27.453125 61.203125 61.203125 61.203125 33.742187 0 61.199219-27.453125 61.199219-61.203125 0-33.746094-27.453125-61.199219-61.199219-61.199219zm0 92.359375c-17.183594 0-31.160156-13.976563-31.160156-31.160156 0-17.179688 13.976562-31.15625 31.160156-31.15625 17.179687 0 31.15625 13.976562 31.15625 31.15625 0 17.179687-13.976563 31.160156-31.15625 31.160156zm0 0"/><path d="m401.046875 189.761719c-20.632813-17.222657-46.863281-26.433594-73.832031-25.933594-16.75.308594-33.117188 4.347656-47.949219 11.660156v-7.101562c0-9.253907-7.503906-16.757813-16.757813-16.757813h-87.882812c-9.253906 0-16.757812 7.503906-16.757812 16.757813v326.855469c0 9.257812 7.503906 16.757812 16.757812 16.757812h89.617188c8.296874 0 15.023437-6.726562 15.023437-15.019531v-194.878907c0-16.683593 13.054687-30.800781 29.726563-31.296874 17.328124-.511719 31.585937 13.429687 31.585937 30.644531v195.84375c0 8.121093 6.585937 14.707031 14.707031 14.707031h86.128906c8.121094 0 14.707032-6.585938 14.707032-14.707031v-189.886719c0-45.546875-20.074219-88.429688-55.074219-117.644531zm25.03125 292.195312h-55.453125v-180.507812c0-33.46875-27.230469-60.699219-60.703125-60.699219-33.46875 0-60.699219 27.230469-60.699219 60.699219v180.507812h-61.3125v-300.289062h61.3125v21.832031h.019532c-.003907 3.539062 1.226562 7.09375 3.757812 9.957031 5.496094 6.210938 14.992188 6.789063 21.203125 1.289063 14.800781-13.101563 33.824219-20.515625 53.566406-20.882813 19.761719-.375 38.941407 6.367188 54.027344 18.960938 28.144531 23.492187 44.28125 57.964843 44.28125 94.582031zm0 0"/></symbol>
	<symbol id="messenger" viewBox="0 0 512 512.00003">
		<title>messenger</title><path d="m511.945312 245.640625c-1.53125-66.980469-29.011718-129.398437-77.382812-175.753906-48.300781-46.289063-111.746094-71.082031-178.589844-69.839844-66.871094-1.253906-130.285156 23.554687-178.585937 69.839844-48.371094 46.355469-75.851563 108.773437-77.38281275 175.75l-.00390625.210937v.210938c.351562 68.261718 29.582031 133.15625 80.320312 178.640625v61.886719c0 12.011718 8.386719 22.476562 19.941407 24.882812 1.710937.355469 3.433593.53125 5.148437.53125 4.648438 0 9.21875-1.296875 13.242188-3.8125l49.738281-31.070312c28.050781 9.820312 57.320313 14.796874 87.078125 14.796874h.375c1.644531.03125 3.277344.046876 4.917969.046876 65.105469-.003907 126.65625-24.707032 173.800781-69.886719 48.371094-46.355469 75.851562-108.769531 77.382812-175.75l.007813-.34375zm-98.160156 154.753906c-41.515625 39.785157-95.707031 61.539063-153.039062 61.539063-1.488282 0-2.980469-.015625-4.476563-.042969l-.164062-.003906h-.160157c-27.667968.054687-54.917968-4.753907-80.917968-14.289063-6.433594-2.359375-13.441406-1.636718-19.222656 1.976563l-45.457032 28.394531v-56.925781c0-6.347657-2.761718-12.390625-7.574218-16.578125-45.867188-39.871094-72.371094-97.578125-72.742188-158.351563 1.394531-58.898437 25.585938-113.773437 68.132812-154.546875 42.59375-40.816406 98.558594-62.644531 157.511719-61.492187l.296875.003906.296875-.003906c58.992188-1.164063 114.921875 20.675781 157.515625 61.492187 42.507813 40.738282 66.695313 95.570313 68.128906 154.414063-1.429687 58.847656-25.617187 113.675781-68.128906 154.414062zm0 0"/><path d="m394.566406 163.722656-95.316406 51.96875-57.097656-48.960937c-9.878906-8.46875-24.824219-7.894531-34.019532 1.304687l-120.511718 120.511719c-4.71875 4.75-7.308594 11.046875-7.285156 17.738281.019531 6.695313 2.644531 12.980469 7.390624 17.695313 4.839844 4.808593 11.171876 7.316406 17.609376 7.316406 4.085937 0 8.210937-1.007813 12.027343-3.078125l95.320313-51.96875 57.15625 48.980469c9.878906 8.46875 24.824218 7.894531 34.019531-1.304688l120.53125-120.53125c8.6875-8.769531 9.644531-22.804687 2.238281-32.671875-7.410156-9.914062-21.191406-12.921875-32.0625-7zm-108.683594 135.710938-57.894531-49.613282c-4.046875-3.46875-9.164062-5.257812-14.3125-5.257812-3.59375 0-7.203125.871094-10.46875 2.652344l-69.894531 38.105468 92.792969-92.792968 57.828125 49.589844c6.875 5.894531 16.835937 6.945312 24.792968 2.609374l70.066407-38.203124zm0 0"/></symbol>
	<symbol id="telegram" viewBox="0 -60 511.99996 511">
		<title>telegram</title><path d="m507.773438 7.292969c-5.015626-6.109375-13.332032-8.375-20.726563-5.65625l-469.65625 169.722656c-9.382813 3.410156-15.96875 11.679687-17.191406 21.582031-1.210938 9.855469 3.132812 19.417969 11.28125 24.921875l67.132812 45.828125c6.503907 4.441406 14.867188 4.917969 21.832031 1.242188l145.625-76.792969-113.496093 84.746094c-5.328125 3.980469-8.511719 10.328125-8.511719 16.976562v78.5c0 8.097657 4.441406 15.515625 11.589844 19.367188 7.160156 3.851562 15.808594 3.46875 22.609375-1.015625l51.003906-33.832032 50.15625 34.199219c4.394531 3.011719 9.628906 4.597657 14.910156 4.597657 1.785157 0 3.578125-.183594 5.34375-.550782 7.042969-1.46875 13.273438-5.820312 17.097657-11.9375l212.488281-350.382812c4.136719-6.746094 3.542969-15.378906-1.488281-21.515625zm-234.5625 352.863281-51.941407-35.417969c-3.613281-2.46875-7.777343-3.703125-11.9375-3.703125-4.070312 0-8.144531 1.183594-11.710937 3.550782l-43.542969 28.882812v-59.175781l200.410156-149.644531c8.949219-6.683594 11.203125-18.847657 5.238281-28.292969-5.96875-9.445313-17.917968-12.636719-27.796874-7.425781l-240.78125 126.972656-56.78125-38.761719 432.488281-156.289063zm0 0"/></symbol>
	<symbol id="rss" viewBox="0 0 512 512.00203">
		<title>rss</title><path d="m333.175781 496.832031c-.027343-84.941406-33.117187-164.792969-93.179687-224.855469-60.089844-60.089843-139.980469-93.179687-224.957032-93.179687-.007812 0-.015624 0-.023437 0-.003906 0-.011719 0-.019531 0-8.28125 0-14.996094 6.714844-14.996094 14.996094v95.339843c0 8.28125 6.714844 14.996094 14.996094 14.996094 106.3125 0 192.808594 86.492188 192.808594 192.808594 0 6.265625 3.847656 11.628906 9.308593 13.871094 1.800781.765625 3.785157 1.195312 5.867188 1.195312h.019531l94.042969-.128906c.378906.027344.753906.054688 1.140625.054688 8.28125 0 14.992187-6.710938 14.992187-14.992188 0-.023438 0-.042969 0-.066406 0-.003906 0-.007813 0-.015625 0-.007813 0-.015625 0-.023438zm-160.640625-157.4375c-38.523437-38.527343-88.675781-61.191406-142.542968-64.75v-65.472656c71.347656 3.621094 137.914062 33.125 188.796874 84.011719 50.867188 50.863281 80.367188 117.398437 84.007813 188.71875l-65.507813.089844c-3.546874-53.886719-26.214843-104.058594-64.753906-142.597657zm0 0"/><path d="m67.046875 377.914062c-36.96875 0-67.04296875 30.074219-67.04296875 67.042969s30.07421875 67.042969 67.04296875 67.042969 67.042969-30.074219 67.042969-67.042969-30.074219-67.042969-67.042969-67.042969zm0 104.097657c-20.429687 0-37.054687-16.625-37.054687-37.054688 0-20.433593 16.625-37.054687 37.054687-37.054687s37.054687 16.621094 37.054687 37.054687c0 20.429688-16.621093 37.054688-37.054687 37.054688zm0 0"/><path d="m511.558594 496.4375c0-.003906 0-.007812 0-.015625-.015625-66.976563-13.148438-131.960937-39.027344-193.148437-25.011719-59.132813-60.8125-112.234376-106.410156-157.832032-45.597656-45.601562-98.703125-81.402344-157.835938-106.414062-61.226562-25.894532-126.261718-39.027344-193.289062-39.027344-8.28125 0-14.996094 6.714844-14.996094 14.996094v94.242187c0 8.28125 6.714844 14.996094 14.996094 14.996094 50.269531 0 99.03125 9.84375 144.921875 29.253906 44.335937 18.75 84.15625 45.597657 118.355469 79.800781 34.199218 34.195313 61.046874 74.015626 79.796874 118.351563 19.414063 45.894531 29.253907 94.652344 29.253907 144.921875 0 5.707031 3.191406 10.671875 7.882812 13.203125 2.179688 1.234375 4.691407 1.949219 7.375 1.949219h.039063l92.378906-.238282c.515625.054688 1.035156.082032 1.5625.082032 8.28125 0 14.996094-6.714844 14.996094-14.996094 0-.035156 0-.070312 0-.109375 0-.003906 0-.007813 0-.015625zm-125.863282-156.480469c-20.265624-47.910156-49.273437-90.933593-86.214843-127.875-36.945313-36.945312-79.96875-65.953125-127.878907-86.214843-45.03125-19.046876-92.597656-29.570313-141.609374-31.347657v-64.285156c57.695312 1.804687 113.675781 14.023437 166.609374 36.414063 55.558594 23.5 105.457032 57.144531 148.3125 100 42.851563 42.851562 76.496094 92.75 99.996094 148.308593 22.382813 52.921875 34.605469 108.886719 36.414063 166.566407l-64.28125.164062c-1.765625-49.054688-12.289063-96.664062-31.347657-141.730469zm0 0"/></symbol>
	<symbol id="vimeo" viewBox="0 -32 511.99832 511">
		<title>vimeo</title><path d="m497.792969 34.046875c-22.066407-32.902344-57.640625-33.535156-59.144531-33.546875h-.109376c-33.136718 0-64.675781 10.378906-91.214843 30.019531-20.390625 15.089844-37.921875 35.957031-48.101563 57.25-3.296875 6.894531-2.726562 14.808594 1.527344 21.167969s11.355469 9.910156 18.976562 9.492188c16.152344-.886719 27.214844 2.855468 33.816407 11.398437 5.667969 7.34375 6.546875 16.765625 6.28125 23.375-.175781 4.476563-1.152344 9.042969-2.902344 13.5625l-.71875 1.851563c-.339844.886718-.339844.886718-.421875 1.089843l-.058594.148438c-37.488281 95.03125-63.015625 114.980469-77.828125 114.980469-1.425781 0-2.179687-.304688-2.210937-.320313l-.25-.097656c-2.726563-1.078125-17.140625-9.605469-33.023438-72.066407-10.25-40.308593-16.75-86.324218-19.714844-110.164062l-.027343-.21875c-1.925781-13.839844-4.617188-26.414062-8-37.375-5.828125-18.871094-18.746094-34.230469-36.375-43.246094-17.734375-9.066406-37.894531-10.546875-56.765625-4.171875-3.339844 1.128907-6.332032 2.375-9.148438 3.804688-36.433594 18.457031-83.433594 65.242187-106.015625 87.722656-7.957031 7.917969-8.519531 20.378906-1.308593 28.984375 7.527343 8.980469 20.628906 10.296875 29.828124 2.992188 9.082032-7.214844 17.390626-10.871094 24.695313-10.871094 12.742187 0 18.171875 11.550781 18.226563 11.667968l.210937.441407c29.535156 59.359375 49.101563 142.902343 49.292969 143.742187l.035156.136719c15.59375 64.441406 34.785156 110.730469 57.039062 137.582031 19.183594 23.148438 35.34375 24.949219 39.839844 24.949219h1.128906l.933594-.121094c112.195313-14.199219 216.203125-182.933593 255.710938-254.816406 11.738281-21.355469 20.222656-43.667969 25.21875-66.328125 8.695312-39.425781 5.523437-70.722656-9.421875-93.015625zm-19.828125 86.570313c-4.382813 19.867187-11.855469 39.5-22.21875 58.347656-16.332032 29.722656-50.128906 87.292968-92.921875 138.898437-23.453125 28.285157-46.554688 51.066407-68.667969 67.707031-24.566406 18.484376-48.003906 29.464844-69.707031 32.660157-5.179688-1.722657-38.433594-17.359375-67.980469-139.421875-.75-3.1875-20.9375-88.441406-51.539062-150.035156-6.714844-14.433594-23.285157-28.914063-45.351563-28.914063-.359375 0-.714844.003906-1.070313.011719 21.332032-19.867188 47.175782-41.917969 67.410157-52.171875 1.53125-.777344 3.234375-1.476563 5.203125-2.144531 11.148437-3.765626 23.058594-2.890626 33.53125 2.464843 10.375 5.304688 17.972656 14.332031 21.390625 25.410157 2.902343 9.402343 5.238281 20.359374 6.941406 32.566406 3.726563 29.972656 10.289063 73.992187 20.394531 113.738281 13.9375 54.808594 30.132813 84.210937 50.953125 92.503906 2.878907 1.179688 7.53125 2.550781 13.5625 2.550781 19.558594 0 37.738281-11.605468 55.582031-35.488281 16.054688-21.488281 32.4375-53.671875 50.078126-98.375.09375-.234375.132812-.328125.585937-1.503906l.714844-1.84375c2.941406-7.605469 4.589843-15.40625 4.898437-23.183594.660156-16.597656-3.664062-31.421875-12.503906-42.875-10.339844-13.386719-25.1875-21.011719-44.257812-22.773437 6.308593-9.75 16.601562-22.640625 32.152343-34.148438 21.601563-15.988281 46.234375-24.109375 73.21875-24.144531h.007813.023437.148438-.167969c1.734375.066406 21.792969 1.265625 34.542969 20.273437 10.070312 15.023438 11.816406 39.191407 5.046875 69.890626zm0 0"/></symbol>
	<symbol id="happy" viewBox="0 0 512.001 512">
		<title>happy</title><path d="m437.019531 74.980469c-48.351562-48.351563-112.640625-74.980469-181.019531-74.980469s-132.667969 26.628906-181.019531 74.980469c-48.351563 48.351562-74.980469 112.640625-74.980469 181.019531s26.628906 132.667969 74.980469 181.019531c48.351562 48.351563 112.640625 74.980469 181.019531 74.980469s132.667969-26.628906 181.019531-74.980469c48.351563-48.351562 74.980469-112.640625 74.980469-181.019531s-26.628906-132.667969-74.980469-181.019531zm-21.234375 340.804687c-42.679687 42.679688-99.425781 66.1875-159.785156 66.1875s-117.105469-23.503906-159.785156-66.1875c-42.679688-42.679687-66.1875-99.425781-66.1875-159.785156s23.507812-117.105469 66.1875-159.785156c42.679687-42.679688 99.425781-66.183594 159.785156-66.183594s117.105469 23.503906 159.785156 66.183594c42.679688 42.679687 66.1875 99.425781 66.1875 159.785156s-23.507812 117.105469-66.1875 159.785156zm0 0"/><path d="m199.710938 196.21875c0 8.292969 6.722656 15.015625 15.015624 15.015625 8.292969 0 15.011719-6.722656 15.011719-15.015625 0-33.632812-27.363281-60.996094-60.996093-60.996094-33.632813 0-60.996094 27.363282-60.996094 60.996094 0 8.292969 6.722656 15.015625 15.015625 15.015625s15.015625-6.722656 15.015625-15.015625c0-17.074219 13.890625-30.96875 30.964844-30.96875 17.078124 0 30.96875 13.894531 30.96875 30.96875zm0 0"/><path d="m347.949219 135.222656c-33.632813 0-60.996094 27.363282-60.996094 60.996094 0 8.292969 6.722656 15.015625 15.015625 15.015625 8.289062 0 15.011719-6.722656 15.011719-15.015625 0-17.074219 13.894531-30.96875 30.96875-30.96875 17.078125 0 30.96875 13.894531 30.96875 30.96875 0 8.292969 6.722656 15.015625 15.015625 15.015625 8.289062 0 15.011718-6.722656 15.011718-15.015625 0-33.632812-27.363281-60.996094-60.996093-60.996094zm0 0"/><path d="m347.226562 258.214844c-8.292968 0-15.015624 6.722656-15.015624 15.015625 0 40.539062-32.980469 73.519531-73.519532 73.519531-40.539062 0-73.519531-32.980469-73.519531-73.519531 0-8.292969-6.722656-15.015625-15.011719-15.015625-8.292968 0-15.015625 6.722656-15.015625 15.015625 0 57.097656 46.453125 103.546875 103.546875 103.546875 57.097656 0 103.550782-46.449219 103.550782-103.546875 0-8.292969-6.722657-15.015625-15.015626-15.015625zm0 0"/></symbol>
	<symbol id="passion" viewBox="-80 0 512 512.001">
		<title>passion</title><path d="M 351.332031 336.332031 C 351.332031 289.410156 333.0625 245.296875 299.882812 212.117188 C 249.160156 161.394531 232.207031 87.738281 255.636719 19.894531 C 257.21875 15.3125 256.488281 10.246094 253.675781 6.292969 C 250.859375 2.34375 246.308594 0 241.457031 0 L 239.933594 0 C 178.507812 0 128.535156 49.972656 128.535156 111.398438 L 128.535156 207.792969 C 128.535156 217.238281 120.847656 224.925781 111.402344 224.925781 C 101.953125 224.925781 94.265625 217.238281 94.265625 207.792969 C 94.265625 202.109375 91.054688 196.914062 85.972656 194.375 C 80.886719 191.835938 74.804688 192.386719 70.257812 195.800781 C 48.925781 211.824219 31.25 232.820312 19.140625 256.519531 C 6.441406 281.382812 0 308.234375 0 336.335938 C 0 432.363281 77.453125 510.625 173.167969 511.96875 C 173.96875 511.988281 174.773438 512 175.582031 512 C 175.609375 512 175.636719 512 175.667969 512 C 175.671875 512 175.667969 512 175.667969 512 C 176.507812 512 177.34375 511.988281 178.179688 511.96875 C 273.886719 510.617188 351.332031 432.355469 351.332031 336.332031 Z M 223.882812 462.03125 C 211.007812 474.90625 193.886719 482 175.671875 482 C 175.671875 482 175.667969 482 175.667969 482 C 157.453125 482 140.328125 474.90625 127.449219 462.027344 C 114.570312 449.148438 107.476562 432.023438 107.476562 413.8125 C 107.476562 395.597656 114.570312 378.476562 127.449219 365.597656 L 175.667969 317.378906 L 223.882812 365.597656 C 250.46875 392.183594 250.46875 435.441406 223.882812 462.03125 Z M 267.042969 449.683594 C 280.816406 414.445312 273.515625 372.800781 245.097656 344.382812 L 186.273438 285.558594 C 183.460938 282.746094 179.648438 281.167969 175.667969 281.167969 C 171.691406 281.167969 167.875 282.746094 165.058594 285.558594 L 106.238281 344.382812 C 87.691406 362.929688 77.476562 387.585938 77.476562 413.8125 C 77.476562 426.253906 79.78125 438.34375 84.179688 449.59375 C 51.15625 422.867188 30 382.027344 30 336.332031 C 30 297.292969 45.132812 260.941406 72.125 233.824219 C 80.578125 246.53125 95.027344 254.925781 111.398438 254.925781 C 137.386719 254.925781 158.53125 233.78125 158.53125 207.792969 L 158.53125 111.398438 C 158.53125 73.054688 185.179688 40.816406 220.933594 32.238281 C 213.765625 63.425781 213.589844 95.917969 220.539062 127.414062 C 229.390625 167.527344 249.492188 204.152344 278.667969 233.332031 C 306.179688 260.84375 321.332031 297.425781 321.332031 336.335938 C 321.332031 382.078125 300.128906 422.960938 267.042969 449.683594 Z M 267.042969 449.683594 " style=" stroke:none;fill-rule:nonzero;fill:rgb(0%,0%,0%);fill-opacity:1;"/></symbol>
	<symbol id="star" viewBox="0 -10 512.0002 512">
		<title>star</title><path d="m387.53125 491.144531c-8.816406 0-17.632812-2.792969-25.324219-8.382812l-98.507812-71.570313c-4.605469-3.34375-10.792969-3.34375-15.398438 0l-98.507812 71.570313c-15.386719 11.179687-35.265625 11.179687-50.652344 0-15.382813-11.179688-21.527344-30.085938-15.652344-48.175781l37.625-115.800782c1.761719-5.414062-.152343-11.296875-4.757812-14.644531l-98.503907-71.566406c-15.386718-11.179688-21.53125-30.089844-15.65625-48.175781 5.878907-18.085938 21.964844-29.773438 40.980469-29.773438h121.761719c5.691406 0 10.699219-3.636719 12.457031-9.050781l37.625-115.800781c5.878907-18.085938 21.964844-29.773438 40.980469-29.773438s35.101562 11.6875 40.980469 29.773438l37.625 115.800781c1.757812 5.414062 6.765625 9.050781 12.457031 9.050781h121.761719c19.015625 0 35.101562 11.6875 40.980469 29.773438 5.875 18.085937-.269532 36.996093-15.65625 48.175781l-98.503907 71.566406c-4.605469 3.347656-6.519531 9.230469-4.757812 14.644531l37.625 115.800782c5.875 18.089843-.269531 36.996093-15.652344 48.175781-7.691406 5.589843-16.511719 8.382812-25.328125 8.382812zm-131.53125-112.46875c8.875 0 17.753906 2.753907 25.328125 8.257813l98.503906 71.566406c7.148438 5.191406 13.59375 1.3125 15.398438 0 1.808593-1.3125 7.488281-6.246094 4.757812-14.644531l-37.625-115.800781c-5.785156-17.808594.503907-37.167969 15.652344-48.171876l98.507813-71.570312c7.144531-5.191406 5.445312-12.523438 4.757812-14.644531-.691406-2.125-3.628906-9.050781-12.457031-9.050781h-121.761719c-18.722656 0-35.191406-11.964844-40.976562-29.773438l-37.628907-115.804688c-2.726562-8.394531-10.222656-9.050781-12.457031-9.050781s-9.730469.65625-12.457031 9.050781l-37.628907 115.804688c-5.785156 17.808594-22.253906 29.773438-40.976562 29.773438h-121.761719c-8.828125 0-11.765625 6.925781-12.457031 9.050781-.691406 2.121093-2.386719 9.453125 4.757812 14.644531l98.507813 71.566406c15.148437 11.007813 21.4375 30.367188 15.652344 48.175782l-37.628907 115.800781c-2.726562 8.398437 2.953126 13.332031 4.761719 14.644531 1.804688 1.3125 8.253907 5.191406 15.398438 0l98.503906-71.566406c7.574219-5.503906 16.449219-8.257813 25.328125-8.257813zm0 0"/></symbol>
	<symbol id="chat-1" viewBox="0 0 511 511.9982">
		<title>chat-1</title><path d="m512.441406 245.640625c-1.527344-66.980469-29.011718-129.398437-77.378906-175.753906-48.300781-46.285157-111.730469-71.078125-178.589844-69.839844-66.882812-1.253906-130.289062 23.554687-178.585937 69.839844-48.371094 46.355469-75.851563 108.773437-77.382813 175.75l-.003906.210937v.210938c.351562 68.257812 29.578125 133.15625 80.320312 178.640625v61.886719c0 12.011718 8.386719 22.472656 19.9375 24.878906 1.710938.355468 3.433594.535156 5.148438.535156 4.648438 0 9.21875-1.300781 13.242188-3.8125l49.738281-31.074219c28.050781 9.824219 57.320312 14.800781 87.078125 14.800781h.375c1.648437.03125 3.277344.046876 4.921875.046876 65.105469-.003907 126.65625-24.710938 173.800781-69.886719 48.367188-46.355469 75.851562-108.773438 77.378906-175.75l.007813-.34375zm-98.15625 154.753906c-42.59375 40.820313-98.535156 62.660157-157.515625 61.496094l-.164062-.003906h-.164063c-27.675781.0625-54.914062-4.753907-80.917968-14.289063-6.429688-2.355468-13.433594-1.636718-19.21875 1.976563l-45.457032 28.394531v-56.925781c0-6.351563-2.761718-12.394531-7.578125-16.578125-45.863281-39.871094-72.367187-97.582032-72.738281-158.351563 1.398438-58.898437 25.585938-113.773437 68.132812-154.546875 42.589844-40.816406 98.546876-62.648437 157.511719-61.492187l.296875.003906.296875-.003906c58.96875-1.144531 114.921875 20.675781 157.515625 61.492187 42.507813 40.738282 66.695313 95.570313 68.128906 154.414063-1.433593 58.847656-25.621093 113.675781-68.128906 154.414062zm0 0"/><path d="m366.476562 174.273438h-220.007812c-8.289062 0-15.011719 6.71875-15.011719 15.011718 0 8.292969 6.722657 15.015625 15.011719 15.015625h220.007812c8.292969 0 15.015626-6.722656 15.015626-15.015625 0-8.292968-6.722657-15.011718-15.015626-15.011718zm0 0"/><path d="m366.476562 240.6875h-220.007812c-8.289062 0-15.011719 6.722656-15.011719 15.011719 0 8.292969 6.722657 15.015625 15.011719 15.015625h220.007812c8.292969 0 15.015626-6.722656 15.015626-15.015625 0-8.289063-6.722657-15.011719-15.015626-15.011719zm0 0"/><path d="m366.476562 307.101562h-108.171874c-8.289063 0-15.011719 6.722657-15.011719 15.015626 0 8.289062 6.722656 15.011718 15.011719 15.011718h108.171874c8.292969 0 15.015626-6.722656 15.015626-15.011718 0-8.292969-6.722657-15.015626-15.015626-15.015626zm0 0"/></symbol>
	<symbol id="like-1" viewBox="0 0 511 511.99962">
		<title>like-1</title><path d="m512.445312 245.636719c-1.53125-66.976563-29.011718-129.394531-77.382812-175.75-48.300781-46.289063-111.726562-71.078125-178.589844-69.8437502-66.886718-1.2421878-130.285156 23.5585932-178.585937 69.8437502-48.371094 46.355469-75.851563 108.773437-77.382813 175.75l-.003906.210937v.210938c.351562 68.261718 29.574219 133.15625 80.320312 178.640625v61.886719c0 12.011718 8.386719 22.476562 19.941407 24.882812 1.710937.355469 3.433593.53125 5.144531.53125 4.652344 0 9.222656-1.300781 13.242188-3.8125l49.738281-31.070312c28.050781 9.820312 57.328125 14.796874 87.085937 14.796874h.367188c1.648437.03125 3.28125.046876 4.921875.046876 65.105469-.003907 126.65625-24.707032 173.800781-69.886719 48.371094-46.355469 75.851562-108.773438 77.382812-175.75l.007813-.34375zm-98.160156 154.757812c-42.59375 40.816407-98.546875 62.640625-157.515625 61.496094l-.324219-.003906c-.160156 0-.316406 0-.472656 0-27.53125 0-54.597656-4.808594-80.445312-14.289063-6.429688-2.359375-13.4375-1.640625-19.222656 1.972656l-45.457032 28.398438v-56.925781c0-6.347657-2.761718-12.390625-7.578125-16.578125-45.863281-39.871094-72.367187-97.578125-72.738281-158.351563 1.394531-58.898437 25.585938-113.773437 68.132812-154.542969 42.589844-40.820312 98.5625-62.632812 157.511719-61.496093l.296875.007812.296875-.007812c59.007813-1.160157 114.921875 20.675781 157.515625 61.496093 42.507813 40.738282 66.695313 95.566407 68.128906 154.414063-1.429687 58.84375-25.621093 113.671875-68.128906 154.410156zm0 0"/><path d="m307.714844 144.183594c-15.269532 0-29.234375 4.816406-41.511719 14.3125-3.4375 2.65625-6.6875 5.644531-9.730469 8.9375-3.042968-3.296875-6.289062-6.28125-9.726562-8.9375-12.28125-9.496094-26.246094-14.3125-41.511719-14.3125-20.257813 0-38.898437 8.121094-52.492187 22.867187-13.28125 14.40625-20.59375 33.988281-20.59375 55.136719 0 45.726562 35.054687 75.597656 83.574218 116.945312 7.96875 6.792969 17.003906 14.496094 26.363282 22.675782 3.980468 3.488281 9.089843 5.40625 14.386718 5.40625s10.40625-1.917969 14.382813-5.398438c9.433593-8.253906 18.433593-15.921875 26.375-22.6875 48.515625-41.34375 83.570312-71.214844 83.570312-116.941406 0-21.152344-7.316406-40.730469-20.597656-55.140625-13.59375-14.742187-32.234375-22.863281-52.488281-22.863281zm-29.960938 172.089844c-6.488281 5.53125-13.679687 11.660156-21.28125 18.246093-7.554687-6.550781-14.765625-12.695312-21.273437-18.242187-45.539063-38.804688-73.023438-62.226563-73.023438-94.089844 0-27.800781 18.109375-47.976562 43.058594-47.976562 8.578125 0 16.148437 2.628906 23.140625 8.035156 6.441406 4.984375 10.988281 11.382812 13.671875 15.878906 3.015625 5.054688 8.542969 8.191406 14.425781 8.191406 5.882813 0 11.414063-3.136718 14.429688-8.195312 2.683594-4.492188 7.230468-10.890625 13.671875-15.875 6.992187-5.40625 14.558593-8.035156 23.140625-8.035156 24.949218 0 43.058594 20.175781 43.058594 47.976562 0 31.863281-27.484376 55.285156-73.019532 94.085938zm0 0"/></symbol>
	<symbol id="hashtag" viewBox="0 0 511 511.99926">
		<title>hashtag</title><path d="m374.328125 512c-11.425781 0-22.9375-4.878906-32.675781-14.210938-4.636719-4.441406-7.632813-11.46875-7.632813-17.894531v-65.6875h-155.113281v57.429688c0 16.183593-9.621094 30.746093-24.507812 37.097656-16.070313 6.859375-34.203126 2.765625-48.511719-10.945313-4.636719-4.441406-7.632813-11.46875-7.632813-17.894531v-65.6875h-57.390625c-16.1875 0-30.746093-9.621093-37.101562-24.507812-6.855469-16.066407-2.765625-34.203125 10.949219-48.507813 4.4375-4.636718 11.464843-7.632812 17.894531-7.632812h65.648437v-155.117188h-57.390625c-16.1875 0-30.746093-9.617187-37.101562-24.503906-6.855469-16.070312-2.765625-34.207031 10.949219-48.511719 4.4375-4.636719 11.464843-7.632812 17.894531-7.632812h65.648437v-57.429688c0-16.183593 9.617188-30.75 24.507813-37.101562 16.070312-6.855469 34.203125-2.761719 48.507812 10.949219 4.640625 4.441406 7.636719 11.46875 7.636719 17.894531v65.6875h155.113281v-57.429688c0-16.183593 9.621094-30.75 24.507813-37.101562 16.066406-6.855469 34.203125-2.761719 48.507812 10.949219 4.636719 4.4375 7.632813 11.464843 7.632813 17.894531v65.6875h57.46875c16.183593 0 30.746093 9.621093 37.097656 24.507812 6.859375 16.066407 2.765625 34.203125-10.945313 48.507813-4.445312 4.636718-11.46875 7.632812-17.898437 7.632812h-65.722656v155.117188h65.722656c6.429687 0 13.453125 2.996094 17.898437 7.632812 13.710938 14.304688 17.804688 32.441406 10.945313 48.511719-6.351563 14.886719-20.914063 24.503906-37.097656 24.503906h-57.46875v57.429688c0 16.183593-9.617188 30.746093-24.503907 37.097656-5.132812 2.191406-10.476562 3.265625-15.835937 3.265625zm-10.300781-34.433594c4.988281 4.144532 10.03125 5.414063 14.359375 3.570313 3.8125-1.625 6.273437-5.355469 6.273437-9.5v-69.839844c0-9.703125 7.894532-17.597656 17.601563-17.597656h69.875c4.144531 0 7.871093-2.464844 9.496093-6.277344 1.847657-4.324219.578126-9.367187-3.566406-14.355469h-75.804687c-9.707031 0-17.601563-7.894531-17.601563-17.597656v-179.9375c0-9.703125 7.894532-17.597656 17.601563-17.597656h75.804687c4.144532-4.988282 5.414063-10.03125 3.566406-14.359375-1.625-3.808594-5.355468-6.273438-9.496093-6.273438h-69.875c-9.707031 0-17.601563-7.894531-17.601563-17.601562v-75.765625c-4.988281-4.144532-10.03125-5.414063-14.355468-3.570313-3.8125 1.628907-6.277344 5.355469-6.277344 9.5v69.839844c0 9.703125-7.894532 17.597656-17.597656 17.597656h-179.9375c-9.703126 0-17.597657-7.894531-17.597657-17.597656v-75.769531c-4.988281-4.144532-10.035156-5.414063-14.359375-3.570313-3.8125 1.628907-6.273437 5.355469-6.273437 9.5v69.839844c0 9.703125-7.894531 17.597656-17.597657 17.597656h-75.730468c-4.148438 4.992188-5.417969 10.03125-3.570313 14.359375 1.628907 3.808594 5.355469 6.273438 9.5 6.273438h69.800781c9.703126 0 17.597657 7.894531 17.597657 17.601562v179.933594c0 9.703125-7.894531 17.597656-17.597657 17.597656h-75.730468c-4.148438 4.992188-5.417969 10.035156-3.570313 14.359375 1.628907 3.8125 5.355469 6.277344 9.5 6.277344h69.800781c9.703126 0 17.597657 7.894531 17.597657 17.597656v75.765625c4.992187 4.148438 10.03125 5.414063 14.359375 3.570313 3.8125-1.625 6.273437-5.355469 6.273437-9.5v-69.835938c0-9.703125 7.898438-17.597656 17.601563-17.597656h179.933594c9.703124 0 17.597656 7.894531 17.597656 17.597656zm-17.597656-114h-179.9375c-9.703126 0-17.597657-7.894531-17.597657-17.597656v-179.9375c0-9.703125 7.894531-17.597656 17.597657-17.597656h179.9375c9.703124 0 17.597656 7.894531 17.597656 17.597656v179.9375c0 9.703125-7.894532 17.597656-17.597656 17.597656zm-167.523438-30.007812h155.113281v-155.117188h-155.113281zm0 0"/></symbol>
	<symbol id="information" viewBox="0 0 511 511.99962">
		<title>information</title><path d="m512.445312 245.636719c-1.53125-66.976563-29.011718-129.394531-77.382812-175.75-48.300781-46.289063-111.703125-71.082031-178.589844-69.8437502-66.882812-1.2421878-130.285156 23.5585932-178.585937 69.8437502-48.371094 46.355469-75.851563 108.773437-77.382813 175.75l-.003906.210937v.210938c.351562 68.261718 29.574219 133.15625 80.320312 178.640625v61.886719c0 12.011718 8.386719 22.476562 19.941407 24.882812 1.710937.355469 3.433593.53125 5.144531.53125 4.652344 0 9.222656-1.300781 13.242188-3.8125l49.738281-31.070312c28.050781 9.820312 57.328125 14.796874 87.085937 14.796874h.367188c1.648437.03125 3.28125.046876 4.921875.046876 65.105469-.003907 126.65625-24.707032 173.800781-69.886719 48.371094-46.355469 75.851562-108.773438 77.382812-175.75l.007813-.34375zm-98.160156 154.757812c-42.59375 40.816407-98.558594 62.65625-157.515625 61.496094l-.324219-.003906c-27.675781.023437-54.917968-4.753907-80.917968-14.289063-6.429688-2.359375-13.433594-1.640625-19.222656 1.972656l-45.457032 28.398438v-56.925781c0-6.347657-2.761718-12.390625-7.578125-16.578125-45.863281-39.871094-72.367187-97.578125-72.738281-158.351563 1.398438-58.898437 25.589844-113.773437 68.132812-154.542969 42.589844-40.820312 98.566407-62.632812 157.515626-61.496093l.292968.007812.296875-.007812c58.980469-1.160157 114.921875 20.671875 157.515625 61.492187 42.507813 40.738282 66.695313 95.566406 68.128906 154.414063-1.433593 58.847656-25.621093 113.675781-68.128906 154.414062zm0 0"/><path d="m297.753906 314.40625v-103.636719c0-15.203125-12.371094-27.574219-27.574218-27.574219h-50.730469c-15.207031 0-27.578125 12.371094-27.578125 27.574219v26.089844c0 13.546875 9.816406 24.839844 22.710937 27.144531v51.035156c-12.894531 2.304688-22.710937 13.597657-22.710937 27.144532v26.089844c0 15.203124 12.371094 27.574218 27.578125 27.574218h74.402343c15.207032 0 27.578126-12.371094 27.578126-27.574218v-26.089844c0-14.121094-10.3125-25.84375-23.675782-27.777344zm-6.355468 51.414062h-69.496094v-21.183593h4.5c10.039062 0 18.207031-8.167969 18.207031-18.207031v-73.8125c0-10.039063-8.167969-18.207032-18.207031-18.207032h-4.5v-21.183594h45.824218v112.71875c0 10.039063 8.167969 18.207032 18.207032 18.207032h5.464844zm0 0"/><path d="m254.347656 174.210938c24.058594 0 43.632813-19.574219 43.632813-43.632813 0-24.0625-19.574219-43.636719-43.632813-43.636719-24.0625 0-43.636718 19.574219-43.636718 43.636719 0 24.058594 19.574218 43.632813 43.636718 43.632813zm0-57.242188c7.5 0 13.605469 6.105469 13.605469 13.609375s-6.105469 13.605469-13.605469 13.605469c-7.503906 0-13.609375-6.101563-13.609375-13.605469s6.105469-13.609375 13.609375-13.609375zm0 0"/>
	</symbol>
	<symbol id="icon-bag" viewBox="0 0 34 38">
			<g>
					<path id="XMLID_2_" fill="none" stroke-miterlimit="10" d="M29,36H5c-1.7,0-3-1.6-3-3.5L4,15h26 l2,17.5C32,34.4,30.7,36,29,36z"/>
					<path id="XMLID_1_" fill="none" stroke-miterlimit="10" d="M11.8,11c0-1.4,0.6-9,5.2-9s5,8.6,5,9 "/>
			</g>
	</symbol>
	<symbol id="icon-filled-bag" viewBox="0 0 100 105">
			<path d="M65.4,37.7c-1.1,0-2-0.9-2-2V22.4C63.4,15,57.4,9,50,9c-7.4,0-13.4,6-13.4,13.4v13.3c0,1.1-0.9,2-2,2s-2-0.9-2-2V22.4  C32.6,12.8,40.4,5,50,5c9.6,0,17.4,7.8,17.4,17.4v13.3C67.4,36.8,66.5,37.7,65.4,37.7z"/><g><path d="M79.1,27.6h-7.7v8.1c0,3.3-2.7,6-6,6s-6-2.7-6-6v-8.1H40.6v8.1c0,3.3-2.7,6-6,6s-6-2.7-6-6v-8.1h-7.7c-1.1,0-2,0.9-2,2V93   c0,1.1,0.9,2,2,2h58.2c1.1,0,2-0.9,2-2V29.6C81.1,28.5,80.2,27.6,79.1,27.6z"/></g>
	</symbol>

	<symbol id="icon-bags" viewBox="0 0 100 100">
			<path d="M13.3,94h27.9c0.6,0,1-0.4,1-1s-0.4-1-1-1H13.3c-5.4,0-9.9-4.4-9.9-9.9V23.4h14.1V32c0,0.6,0.4,1,1,1s1-0.4,1-1v-8.5h26.1  V32c0,0.6,0.4,1,1,1s1-0.4,1-1v-8.5h14.1v4.9c0,0.6,0.4,1,1,1s1-0.4,1-1v-5.9c0-0.6-0.4-1-1-1H47.7v-0.4C47.7,12.8,41,6,32.7,6  c-8.3,0-15.1,6.8-15.1,15.1v0.4H2.5c-0.6,0-1,0.4-1,1v59.7C1.5,88.7,6.8,94,13.3,94z M19.6,21.1C19.6,13.9,25.5,8,32.7,8  s13.1,5.9,13.1,13.1v0.4H19.6V21.1z M85.5,45.3c0-6.7-5.4-12.1-12.1-12.1s-12.1,5.4-12.1,12.1v3.3h-12c-0.6,0-1,0.4-1,1v26.8  c0,9.7,7.9,17.6,17.6,17.6H81c9.7,0,17.6-7.9,17.6-17.6V49.6c0-0.6-0.4-1-1-1h-12V45.3z M63.2,45.3c0-5.6,4.5-10.1,10.1-10.1  s10.1,4.5,10.1,10.1v3.3H63.2V45.3z M96.5,50.6v25.8C96.5,85,89.6,92,81,92H65.8c-8.6,0-15.6-7-15.6-15.6V50.6h11v6c0,0.6,0.4,1,1,1  s1-0.4,1-1v-6h20.3v6c0,0.6,0.4,1,1,1s1-0.4,1-1v-6H96.5z"/>
	</symbol>

	<symbol id="icon-approved-basket" viewBox="0 0 24 25">
			<g><path d="M22.5,7h-22C0.224,7,0,6.777,0,6.5S0.224,6,0.5,6h22C22.776,6,23,6.224,23,6.5S22.776,7,22.5,7z"/></g><g><path d="M6.5,7C6.404,7,6.308,6.973,6.223,6.916c-0.23-0.153-0.292-0.463-0.139-0.693l4-6c0.152-0.23,0.462-0.292,0.693-0.139    c0.23,0.153,0.292,0.463,0.139,0.693l-4,6C6.82,6.922,6.661,7,6.5,7z"/></g><g><path d="M16.5,7c-0.162,0-0.32-0.078-0.417-0.223l-4-6c-0.153-0.23-0.091-0.54,0.139-0.693s0.54-0.092,0.693,0.139l4,6    c0.153,0.23,0.091,0.54-0.139,0.693C16.692,6.973,16.596,7,16.5,7z"/></g><path d="M21.897,6.196C21.803,6.073,21.656,6,21.5,6h-20C1.344,6,1.197,6.073,1.103,6.196C1.008,6.32,0.977,6.482,1.018,6.631   l2.598,9.526C3.912,17.243,4.903,18,6.027,18h5.553c0.249,0,0.459-0.183,0.495-0.429c0.524-3.649,4.041-6.291,7.896-5.396   c0.262,0.064,0.525-0.096,0.596-0.355l1.415-5.188C22.023,6.482,21.992,6.32,21.897,6.196z"/><path d="M18.5,13c-3.033,0-5.5,2.467-5.5,5.5s2.467,5.5,5.5,5.5s5.5-2.467,5.5-5.5S21.533,13,18.5,13z M21.854,16.853l-4,4   C17.756,20.951,17.628,21,17.5,21s-0.256-0.049-0.354-0.146l-2-2c-0.195-0.195-0.195-0.512,0-0.707s0.512-0.195,0.707,0   l1.646,1.646l3.646-3.646c0.195-0.195,0.512-0.195,0.707,0S22.049,16.658,21.854,16.853z"/>
	</symbol>

	<symbol id="icon-cart" viewBox="0 0 30 24">
			<g>
					<circle stroke-miterlimit="10" cx="22.5" cy="21.5" r="1"/>
					<circle stroke-miterlimit="10" cx="9.5" cy="21.5" r="1"/>
					<path fill="none" stroke-miterlimit="10" d="M0,1.5h5c0.6,0,1.1,0.4,1.1,1l1.7,13 c0.1,0.5,0.6,1,1.1,1h15c0.5,0,1.2-0.4,1.4-0.9l3.3-8.1c0.2-0.5-0.1-0.9-0.6-0.9H12"/>
			</g>
	</symbol>

	<symbol id="icon-approved-cart" viewBox="0 0 24 24">
			<g><g><circle cx="18.5" cy="21.5" r="2.5"/><circle cx="8.5" cy="21.5" r="2.5"/></g><g><path d="M20.5,18H8.959c-1.663,0-3.106-1.183-3.432-2.813L3.09,3H0.5C0.224,3,0,2.776,0,2.5S0.224,2,0.5,2h3    c0.238,0,0.443,0.168,0.49,0.402L6.508,14.99C6.741,16.155,7.771,17,8.959,17H20.5c0.276,0,0.5,0.224,0.5,0.5S20.776,18,20.5,18z"/></g><path d="M21.972,11.279c-0.149-0.088-0.332-0.094-0.485-0.013C20.552,11.753,19.547,12,18.5,12c-3.584,0-6.496-2.71-6.491-6.376   c0-0.007,0.005-0.103,0.006-0.109c0.004-0.138-0.049-0.271-0.146-0.368C11.771,5.049,11.636,4.997,11.5,5L4.485,5   C4.339,5.004,4.202,5.073,4.111,5.187C4.019,5.3,3.981,5.448,4.009,5.592l1.5,8C5.553,13.829,5.759,14,6,14h13.734   c1.258,0,2.325-0.941,2.48-2.19c0.003-0.025,0.003-0.088,0.003-0.113C22.213,11.525,22.12,11.367,21.972,11.279z"/><path d="M18.5,0C15.467,0,13,2.467,13,5.5s2.467,5.5,5.5,5.5S24,8.533,24,5.5S21.533,0,18.5,0z M21.854,3.854l-4,4   C17.756,7.951,17.628,8,17.5,8s-0.256-0.049-0.354-0.146l-2-2c-0.195-0.195-0.195-0.512,0-0.707s0.512-0.195,0.707,0L17.5,6.793   l3.646-3.646c0.195-0.195,0.512-0.195,0.707,0S22.049,3.658,21.854,3.854z"/></g>
	</symbol>

	<symbol id="icon-empty-cart" viewBox="0 0 24 30">
			<g><g><path d="M18.5,24c-1.379,0-2.5-1.122-2.5-2.5s1.121-2.5,2.5-2.5s2.5,1.122,2.5,2.5S19.879,24,18.5,24z M18.5,20    c-0.827,0-1.5,0.673-1.5,1.5s0.673,1.5,1.5,1.5s1.5-0.673,1.5-1.5S19.327,20,18.5,20z"/><path d="M8.5,24C7.121,24,6,22.878,6,21.5S7.121,19,8.5,19s2.5,1.122,2.5,2.5S9.879,24,8.5,24z M8.5,20C7.673,20,7,20.673,7,21.5    S7.673,23,8.5,23s1.5-0.673,1.5-1.5S9.327,20,8.5,20z"/><path d="M20.5,18H8.959c-1.663,0-3.105-1.183-3.432-2.813L3.09,3H0.5C0.224,3,0,2.776,0,2.5S0.224,2,0.5,2h3    c0.238,0,0.443,0.168,0.49,0.402L6.508,14.99C6.74,16.155,7.771,17,8.959,17H20.5c0.276,0,0.5,0.224,0.5,0.5S20.776,18,20.5,18z"/><path d="M19.734,14H6c-0.276,0-0.5-0.224-0.5-0.5S5.724,13,6,13h13.734c0.755,0,1.395-0.565,1.488-1.314    c0.034-0.275,0.298-0.468,0.558-0.434c0.274,0.034,0.469,0.284,0.435,0.558C22.059,13.059,20.992,14,19.734,14z"/><path d="M11.5,6h-7C4.224,6,4,5.776,4,5.5S4.224,5,4.5,5h7C11.776,5,12,5.224,12,5.5S11.776,6,11.5,6z"/></g><g><path d="M18.5,11C15.468,11,13,8.533,13,5.5S15.468,0,18.5,0S24,2.467,24,5.5S21.532,11,18.5,11z M18.5,1    C16.019,1,14,3.019,14,5.5s2.019,4.5,4.5,4.5S23,7.981,23,5.5S20.981,1,18.5,1z"/></g><path d="M20.5,8c-0.128,0-0.256-0.049-0.354-0.146l-4-4c-0.195-0.195-0.195-0.512,0-0.707s0.512-0.195,0.707,0l4,4   c0.195,0.195,0.195,0.512,0,0.707C20.756,7.951,20.628,8,20.5,8z"/><path d="M16.5,8c-0.128,0-0.256-0.049-0.354-0.146c-0.195-0.195-0.195-0.512,0-0.707l4-4c0.195-0.195,0.512-0.195,0.707,0   s0.195,0.512,0,0.707l-4,4C16.756,7.951,16.628,8,16.5,8z"/></g>
	</symbol>

</svg>
